<mxfile host="Electron" modified="2023-12-17T09:37:31.870Z" agent="Mozilla/5.0 (Macintosh; Intel Mac OS X 10_15_7) AppleWebKit/537.36 (KHTML, like Gecko) draw.io/21.2.1 Chrome/112.0.5615.87 Electron/24.1.2 Safari/537.36" etag="oUer-lK7wXTsHuBAEStm" version="21.2.1" type="device" pages="6">
  <diagram id="Y-TxI_wUKlWUvKV0Llxg" name="init">
    <mxGraphModel dx="2177" dy="1538" grid="1" gridSize="10" guides="1" tooltips="1" connect="1" arrows="1" fold="1" page="1" pageScale="1" pageWidth="827" pageHeight="1169" math="0" shadow="0">
      <root>
        <mxCell id="0" />
        <mxCell id="1" parent="0" />
        <mxCell id="OG4sqmwREP5NXI3NgsYa-5" style="edgeStyle=orthogonalEdgeStyle;rounded=0;orthogonalLoop=1;jettySize=auto;html=1;exitX=0.5;exitY=1;exitDx=0;exitDy=0;exitPerimeter=0;entryX=0.5;entryY=0;entryDx=0;entryDy=0;fontSize=13;" parent="1" source="QDNVPuM5ZpiROOPK-bXV-2" target="UGT3bRZrYpeq57jqk-WO-1" edge="1">
          <mxGeometry relative="1" as="geometry" />
        </mxCell>
        <mxCell id="QDNVPuM5ZpiROOPK-bXV-2" value="Начало" style="strokeWidth=2;html=1;shape=mxgraph.flowchart.terminator;whiteSpace=wrap;fontSize=13;fontFamily=Helvetica;" parent="1" vertex="1">
          <mxGeometry x="961" y="80" width="240" height="80" as="geometry" />
        </mxCell>
        <mxCell id="FGPXYTCqe5d3Ymr1ltII-2" style="edgeStyle=orthogonalEdgeStyle;rounded=0;orthogonalLoop=1;jettySize=auto;html=1;entryX=0.5;entryY=0;entryDx=0;entryDy=0;fontSize=13;" edge="1" parent="1" source="UGT3bRZrYpeq57jqk-WO-1" target="FGPXYTCqe5d3Ymr1ltII-1">
          <mxGeometry relative="1" as="geometry" />
        </mxCell>
        <mxCell id="UGT3bRZrYpeq57jqk-WO-1" value="Создание proc-файла для хранения списка файлов" style="shape=process;whiteSpace=wrap;html=1;backgroundOutline=1;strokeWidth=2;fontSize=13;" parent="1" vertex="1">
          <mxGeometry x="961" y="182" width="240" height="80" as="geometry" />
        </mxCell>
        <mxCell id="OG4sqmwREP5NXI3NgsYa-4" value="Конец" style="strokeWidth=2;html=1;shape=mxgraph.flowchart.terminator;whiteSpace=wrap;fontSize=13;fontFamily=Helvetica;" parent="1" vertex="1">
          <mxGeometry x="980" y="1390" width="240" height="80" as="geometry" />
        </mxCell>
        <mxCell id="FGPXYTCqe5d3Ymr1ltII-7" style="edgeStyle=orthogonalEdgeStyle;rounded=0;orthogonalLoop=1;jettySize=auto;html=1;entryX=0.5;entryY=0;entryDx=0;entryDy=0;exitX=1;exitY=0.5;exitDx=0;exitDy=0;fontSize=13;" edge="1" parent="1" source="FGPXYTCqe5d3Ymr1ltII-1" target="FGPXYTCqe5d3Ymr1ltII-6">
          <mxGeometry relative="1" as="geometry" />
        </mxCell>
        <mxCell id="FGPXYTCqe5d3Ymr1ltII-16" style="edgeStyle=orthogonalEdgeStyle;rounded=0;orthogonalLoop=1;jettySize=auto;html=1;entryX=0.5;entryY=0;entryDx=0;entryDy=0;exitX=0;exitY=0.5;exitDx=0;exitDy=0;fontSize=13;" edge="1" parent="1" source="FGPXYTCqe5d3Ymr1ltII-1" target="FGPXYTCqe5d3Ymr1ltII-3">
          <mxGeometry relative="1" as="geometry" />
        </mxCell>
        <mxCell id="FGPXYTCqe5d3Ymr1ltII-1" value="Создание завершилось&lt;br&gt;&amp;nbsp;с ошибкой?" style="rhombus;whiteSpace=wrap;html=1;strokeWidth=2;fontSize=13;" vertex="1" parent="1">
          <mxGeometry x="961" y="290" width="240" height="80" as="geometry" />
        </mxCell>
        <mxCell id="FGPXYTCqe5d3Ymr1ltII-17" style="edgeStyle=orthogonalEdgeStyle;rounded=0;orthogonalLoop=1;jettySize=auto;html=1;fontSize=13;" edge="1" parent="1" source="FGPXYTCqe5d3Ymr1ltII-3" target="OG4sqmwREP5NXI3NgsYa-4">
          <mxGeometry relative="1" as="geometry">
            <Array as="points">
              <mxPoint x="860" y="1300" />
              <mxPoint x="1100" y="1300" />
            </Array>
          </mxGeometry>
        </mxCell>
        <mxCell id="FGPXYTCqe5d3Ymr1ltII-3" value="Вернуть код ошибки" style="rounded=0;whiteSpace=wrap;html=1;strokeWidth=2;fontSize=13;" vertex="1" parent="1">
          <mxGeometry x="744" y="380" width="240" height="80" as="geometry" />
        </mxCell>
        <mxCell id="FGPXYTCqe5d3Ymr1ltII-22" style="edgeStyle=orthogonalEdgeStyle;rounded=0;orthogonalLoop=1;jettySize=auto;html=1;entryX=0.5;entryY=0;entryDx=0;entryDy=0;fontSize=13;" edge="1" parent="1" source="FGPXYTCqe5d3Ymr1ltII-6" target="FGPXYTCqe5d3Ymr1ltII-19">
          <mxGeometry relative="1" as="geometry" />
        </mxCell>
        <mxCell id="FGPXYTCqe5d3Ymr1ltII-6" value="Заполнение структуры ftrace_hook" style="rounded=0;whiteSpace=wrap;html=1;strokeWidth=2;fontSize=13;" vertex="1" parent="1">
          <mxGeometry x="1182" y="380" width="240" height="80" as="geometry" />
        </mxCell>
        <mxCell id="FGPXYTCqe5d3Ymr1ltII-14" style="edgeStyle=orthogonalEdgeStyle;rounded=0;orthogonalLoop=1;jettySize=auto;html=1;entryX=0.5;entryY=0;entryDx=0;entryDy=0;fontSize=13;" edge="1" parent="1" source="FGPXYTCqe5d3Ymr1ltII-10" target="FGPXYTCqe5d3Ymr1ltII-13">
          <mxGeometry relative="1" as="geometry" />
        </mxCell>
        <mxCell id="FGPXYTCqe5d3Ymr1ltII-29" style="edgeStyle=orthogonalEdgeStyle;rounded=0;orthogonalLoop=1;jettySize=auto;html=1;entryX=0.5;entryY=0;entryDx=0;entryDy=0;exitX=1;exitY=0.5;exitDx=0;exitDy=0;fontSize=13;" edge="1" parent="1" source="FGPXYTCqe5d3Ymr1ltII-10" target="FGPXYTCqe5d3Ymr1ltII-28">
          <mxGeometry relative="1" as="geometry" />
        </mxCell>
        <mxCell id="FGPXYTCqe5d3Ymr1ltII-33" style="edgeStyle=orthogonalEdgeStyle;rounded=0;orthogonalLoop=1;jettySize=auto;html=1;entryX=0.5;entryY=0;entryDx=0;entryDy=0;entryPerimeter=0;fontSize=13;" edge="1" parent="1" target="OG4sqmwREP5NXI3NgsYa-4">
          <mxGeometry relative="1" as="geometry">
            <mxPoint x="1321" y="1240" as="sourcePoint" />
            <Array as="points">
              <mxPoint x="1321" y="1300" />
              <mxPoint x="1100" y="1300" />
            </Array>
          </mxGeometry>
        </mxCell>
        <mxCell id="FGPXYTCqe5d3Ymr1ltII-10" value="Регистраци завершилось &lt;br&gt;с ошибкой?" style="rhombus;whiteSpace=wrap;html=1;strokeWidth=2;fontSize=13;" vertex="1" parent="1">
          <mxGeometry x="1183" y="600" width="240" height="80" as="geometry" />
        </mxCell>
        <mxCell id="FGPXYTCqe5d3Ymr1ltII-32" style="edgeStyle=orthogonalEdgeStyle;rounded=0;orthogonalLoop=1;jettySize=auto;html=1;exitX=0.5;exitY=1;exitDx=0;exitDy=0;endArrow=none;endFill=0;fontSize=13;" edge="1" parent="1" source="FGPXYTCqe5d3Ymr1ltII-13">
          <mxGeometry relative="1" as="geometry">
            <mxPoint x="1540" y="1180" as="targetPoint" />
            <Array as="points">
              <mxPoint x="1059" y="1240" />
              <mxPoint x="1540" y="1240" />
            </Array>
          </mxGeometry>
        </mxCell>
        <mxCell id="FGPXYTCqe5d3Ymr1ltII-13" value="Вернуть код ошибки" style="rounded=0;whiteSpace=wrap;html=1;strokeWidth=2;fontSize=13;" vertex="1" parent="1">
          <mxGeometry x="939" y="690" width="240" height="80" as="geometry" />
        </mxCell>
        <mxCell id="FGPXYTCqe5d3Ymr1ltII-23" style="edgeStyle=orthogonalEdgeStyle;rounded=0;orthogonalLoop=1;jettySize=auto;html=1;fontSize=13;" edge="1" parent="1" source="FGPXYTCqe5d3Ymr1ltII-19" target="FGPXYTCqe5d3Ymr1ltII-10">
          <mxGeometry relative="1" as="geometry" />
        </mxCell>
        <mxCell id="FGPXYTCqe5d3Ymr1ltII-19" value="Регистрация функций перехвата системных вызовов" style="shape=process;whiteSpace=wrap;html=1;backgroundOutline=1;strokeWidth=2;fontSize=13;" vertex="1" parent="1">
          <mxGeometry x="1182" y="490" width="240" height="80" as="geometry" />
        </mxCell>
        <mxCell id="FGPXYTCqe5d3Ymr1ltII-25" style="edgeStyle=orthogonalEdgeStyle;rounded=0;orthogonalLoop=1;jettySize=auto;html=1;fontSize=13;" edge="1" parent="1" source="FGPXYTCqe5d3Ymr1ltII-20" target="FGPXYTCqe5d3Ymr1ltII-24">
          <mxGeometry relative="1" as="geometry" />
        </mxCell>
        <mxCell id="FGPXYTCqe5d3Ymr1ltII-20" value="Регистрация символьного устройства" style="shape=process;whiteSpace=wrap;html=1;backgroundOutline=1;strokeWidth=2;fontSize=13;" vertex="1" parent="1">
          <mxGeometry x="1420" y="810" width="240" height="80" as="geometry" />
        </mxCell>
        <mxCell id="FGPXYTCqe5d3Ymr1ltII-27" style="edgeStyle=orthogonalEdgeStyle;rounded=0;orthogonalLoop=1;jettySize=auto;html=1;entryX=0.5;entryY=0;entryDx=0;entryDy=0;exitX=0;exitY=0.5;exitDx=0;exitDy=0;fontSize=13;" edge="1" parent="1" source="FGPXYTCqe5d3Ymr1ltII-24" target="FGPXYTCqe5d3Ymr1ltII-26">
          <mxGeometry relative="1" as="geometry" />
        </mxCell>
        <mxCell id="FGPXYTCqe5d3Ymr1ltII-31" style="edgeStyle=orthogonalEdgeStyle;rounded=0;orthogonalLoop=1;jettySize=auto;html=1;entryX=0.5;entryY=1;entryDx=0;entryDy=0;exitX=1;exitY=0.5;exitDx=0;exitDy=0;endArrow=none;endFill=0;fontSize=13;" edge="1" parent="1" source="FGPXYTCqe5d3Ymr1ltII-24" target="FGPXYTCqe5d3Ymr1ltII-26">
          <mxGeometry relative="1" as="geometry">
            <Array as="points">
              <mxPoint x="1752" y="970" />
              <mxPoint x="1752" y="1180" />
              <mxPoint x="1332" y="1180" />
            </Array>
          </mxGeometry>
        </mxCell>
        <mxCell id="FGPXYTCqe5d3Ymr1ltII-24" value="Регистраци завершилось &lt;br&gt;с ошибкой?" style="rhombus;whiteSpace=wrap;html=1;strokeWidth=2;fontSize=13;" vertex="1" parent="1">
          <mxGeometry x="1420" y="930" width="240" height="80" as="geometry" />
        </mxCell>
        <mxCell id="FGPXYTCqe5d3Ymr1ltII-26" value="Вернуть код ошибки" style="rounded=0;whiteSpace=wrap;html=1;strokeWidth=2;fontSize=13;" vertex="1" parent="1">
          <mxGeometry x="1212" y="1040" width="240" height="80" as="geometry" />
        </mxCell>
        <mxCell id="FGPXYTCqe5d3Ymr1ltII-30" style="edgeStyle=orthogonalEdgeStyle;rounded=0;orthogonalLoop=1;jettySize=auto;html=1;entryX=0.5;entryY=0;entryDx=0;entryDy=0;fontSize=13;" edge="1" parent="1" source="FGPXYTCqe5d3Ymr1ltII-28" target="FGPXYTCqe5d3Ymr1ltII-20">
          <mxGeometry relative="1" as="geometry" />
        </mxCell>
        <mxCell id="FGPXYTCqe5d3Ymr1ltII-28" value="Заполнение структуры&amp;nbsp;file_operations" style="rounded=0;whiteSpace=wrap;html=1;strokeWidth=2;fontSize=13;" vertex="1" parent="1">
          <mxGeometry x="1420" y="700" width="240" height="80" as="geometry" />
        </mxCell>
        <mxCell id="FGPXYTCqe5d3Ymr1ltII-34" value="Да" style="text;html=1;align=center;verticalAlign=middle;resizable=0;points=[];autosize=1;strokeColor=none;fillColor=none;fontSize=13;" vertex="1" parent="1">
          <mxGeometry x="890" y="298" width="40" height="30" as="geometry" />
        </mxCell>
        <mxCell id="FGPXYTCqe5d3Ymr1ltII-35" value="Да" style="text;html=1;align=center;verticalAlign=middle;resizable=0;points=[];autosize=1;strokeColor=none;fillColor=none;fontSize=13;" vertex="1" parent="1">
          <mxGeometry x="1112" y="610" width="40" height="30" as="geometry" />
        </mxCell>
        <mxCell id="FGPXYTCqe5d3Ymr1ltII-36" value="Да" style="text;html=1;align=center;verticalAlign=middle;resizable=0;points=[];autosize=1;strokeColor=none;fillColor=none;fontSize=13;" vertex="1" parent="1">
          <mxGeometry x="1362" y="940" width="40" height="30" as="geometry" />
        </mxCell>
      </root>
    </mxGraphModel>
  </diagram>
  <diagram id="3-fId7GrLBnNEkne6Rce" name="openat">
    <mxGraphModel dx="1633" dy="1154" grid="1" gridSize="10" guides="1" tooltips="1" connect="1" arrows="1" fold="1" page="1" pageScale="1" pageWidth="827" pageHeight="1169" math="0" shadow="0">
      <root>
        <mxCell id="0" />
        <mxCell id="1" parent="0" />
        <mxCell id="ssd0aRXhhv6hEj87afy4-3" style="edgeStyle=orthogonalEdgeStyle;rounded=0;orthogonalLoop=1;jettySize=auto;html=1;" edge="1" parent="1" source="Ze_jshq3HeP0ru4Q9AQN-2" target="Ze_jshq3HeP0ru4Q9AQN-6">
          <mxGeometry relative="1" as="geometry" />
        </mxCell>
        <mxCell id="Ze_jshq3HeP0ru4Q9AQN-2" value="Начало" style="strokeWidth=2;html=1;shape=mxgraph.flowchart.terminator;whiteSpace=wrap;fontSize=14;fontFamily=Helvetica;" parent="1" vertex="1">
          <mxGeometry x="961" y="80" width="270" height="110" as="geometry" />
        </mxCell>
        <mxCell id="ssd0aRXhhv6hEj87afy4-4" style="edgeStyle=orthogonalEdgeStyle;rounded=0;orthogonalLoop=1;jettySize=auto;html=1;entryX=0.5;entryY=0;entryDx=0;entryDy=0;" edge="1" parent="1" source="Ze_jshq3HeP0ru4Q9AQN-6" target="ssd0aRXhhv6hEj87afy4-1">
          <mxGeometry relative="1" as="geometry" />
        </mxCell>
        <mxCell id="Ze_jshq3HeP0ru4Q9AQN-6" value="Получение имени файла" style="shape=process;whiteSpace=wrap;html=1;backgroundOutline=1;strokeWidth=2;fontSize=14;" parent="1" vertex="1">
          <mxGeometry x="961" y="230" width="270" height="110" as="geometry" />
        </mxCell>
        <mxCell id="Ze_jshq3HeP0ru4Q9AQN-15" value="Конец start" style="strokeWidth=2;html=1;shape=mxgraph.flowchart.terminator;whiteSpace=wrap;fontSize=14;fontFamily=Helvetica;" parent="1" vertex="1">
          <mxGeometry x="962" y="911" width="270" height="110" as="geometry" />
        </mxCell>
        <mxCell id="ssd0aRXhhv6hEj87afy4-5" style="edgeStyle=orthogonalEdgeStyle;rounded=0;orthogonalLoop=1;jettySize=auto;html=1;exitX=1;exitY=0.5;exitDx=0;exitDy=0;" edge="1" parent="1" source="ssd0aRXhhv6hEj87afy4-1" target="ssd0aRXhhv6hEj87afy4-2">
          <mxGeometry relative="1" as="geometry" />
        </mxCell>
        <mxCell id="ssd0aRXhhv6hEj87afy4-14" style="edgeStyle=orthogonalEdgeStyle;rounded=0;orthogonalLoop=1;jettySize=auto;html=1;exitX=0;exitY=0.5;exitDx=0;exitDy=0;" edge="1" parent="1" source="ssd0aRXhhv6hEj87afy4-1" target="ssd0aRXhhv6hEj87afy4-6">
          <mxGeometry relative="1" as="geometry" />
        </mxCell>
        <mxCell id="ssd0aRXhhv6hEj87afy4-22" style="edgeStyle=orthogonalEdgeStyle;rounded=0;orthogonalLoop=1;jettySize=auto;html=1;entryX=0.5;entryY=0;entryDx=0;entryDy=0;entryPerimeter=0;" edge="1" parent="1" target="Ze_jshq3HeP0ru4Q9AQN-15">
          <mxGeometry relative="1" as="geometry">
            <mxPoint x="1097" y="860" as="sourcePoint" />
          </mxGeometry>
        </mxCell>
        <mxCell id="ssd0aRXhhv6hEj87afy4-1" value="&lt;font style=&quot;font-size: 14px;&quot;&gt;Введен ли пароль для показа &lt;br&gt;скрытых файлов?&amp;nbsp;&lt;/font&gt;" style="rhombus;whiteSpace=wrap;html=1;strokeWidth=2;" vertex="1" parent="1">
          <mxGeometry x="961" y="370" width="270" height="110" as="geometry" />
        </mxCell>
        <mxCell id="ssd0aRXhhv6hEj87afy4-18" style="edgeStyle=orthogonalEdgeStyle;rounded=0;orthogonalLoop=1;jettySize=auto;html=1;entryX=0.5;entryY=1;entryDx=0;entryDy=0;endArrow=none;endFill=0;" edge="1" parent="1" source="ssd0aRXhhv6hEj87afy4-2" target="ssd0aRXhhv6hEj87afy4-13">
          <mxGeometry relative="1" as="geometry">
            <Array as="points">
              <mxPoint x="1090" y="565" />
              <mxPoint x="1090" y="790" />
              <mxPoint x="1495" y="790" />
            </Array>
          </mxGeometry>
        </mxCell>
        <mxCell id="ssd0aRXhhv6hEj87afy4-19" style="edgeStyle=orthogonalEdgeStyle;rounded=0;orthogonalLoop=1;jettySize=auto;html=1;exitX=1;exitY=0.5;exitDx=0;exitDy=0;" edge="1" parent="1" source="ssd0aRXhhv6hEj87afy4-2" target="ssd0aRXhhv6hEj87afy4-13">
          <mxGeometry relative="1" as="geometry" />
        </mxCell>
        <mxCell id="ssd0aRXhhv6hEj87afy4-2" value="&lt;font style=&quot;font-size: 14px;&quot;&gt;Есть ли имя файла в списке &lt;br&gt;файлов для скрытия?&lt;/font&gt;" style="rhombus;whiteSpace=wrap;html=1;strokeWidth=2;" vertex="1" parent="1">
          <mxGeometry x="1160" y="510" width="270" height="110" as="geometry" />
        </mxCell>
        <mxCell id="ssd0aRXhhv6hEj87afy4-21" style="edgeStyle=orthogonalEdgeStyle;rounded=0;orthogonalLoop=1;jettySize=auto;html=1;endArrow=none;endFill=0;" edge="1" parent="1" source="ssd0aRXhhv6hEj87afy4-6">
          <mxGeometry relative="1" as="geometry">
            <mxPoint x="1295" y="790" as="targetPoint" />
            <Array as="points">
              <mxPoint x="885" y="860" />
              <mxPoint x="1295" y="860" />
            </Array>
          </mxGeometry>
        </mxCell>
        <mxCell id="ssd0aRXhhv6hEj87afy4-6" value="Системный вызов openat" style="shape=process;whiteSpace=wrap;html=1;backgroundOutline=1;strokeWidth=2;fontSize=14;" vertex="1" parent="1">
          <mxGeometry x="750" y="510" width="270" height="110" as="geometry" />
        </mxCell>
        <mxCell id="ssd0aRXhhv6hEj87afy4-10" value="Да" style="text;html=1;align=center;verticalAlign=middle;resizable=0;points=[];autosize=1;strokeColor=none;fillColor=none;" vertex="1" parent="1">
          <mxGeometry x="910" y="398" width="40" height="30" as="geometry" />
        </mxCell>
        <mxCell id="ssd0aRXhhv6hEj87afy4-13" value="Системный вызов openat" style="shape=process;whiteSpace=wrap;html=1;backgroundOutline=1;strokeWidth=2;fontSize=14;" vertex="1" parent="1">
          <mxGeometry x="1360" y="640" width="270" height="110" as="geometry" />
        </mxCell>
        <mxCell id="ssd0aRXhhv6hEj87afy4-20" value="Да" style="text;html=1;align=center;verticalAlign=middle;resizable=0;points=[];autosize=1;strokeColor=none;fillColor=none;" vertex="1" parent="1">
          <mxGeometry x="1114" y="537" width="40" height="30" as="geometry" />
        </mxCell>
      </root>
    </mxGraphModel>
  </diagram>
  <diagram id="ehO8cG2x64XGiq_Kedb1" name="idef0_0">
    <mxGraphModel dx="746" dy="527" grid="1" gridSize="10" guides="1" tooltips="1" connect="1" arrows="1" fold="1" page="1" pageScale="1" pageWidth="827" pageHeight="1169" math="0" shadow="0">
      <root>
        <mxCell id="0" />
        <mxCell id="1" parent="0" />
        <mxCell id="fbnTvlJ3aztH7MkE5Wtj-1" value="Регулирование прав доступа к файлам" style="rounded=0;whiteSpace=wrap;html=1;fontSize=10;" parent="1" vertex="1">
          <mxGeometry x="280" y="350" width="200" height="110" as="geometry" />
        </mxCell>
        <mxCell id="fbnTvlJ3aztH7MkE5Wtj-2" value="" style="endArrow=block;html=1;rounded=0;endFill=1;entryX=0.25;entryY=1;entryDx=0;entryDy=0;fontSize=10;" parent="1" edge="1">
          <mxGeometry width="50" height="50" relative="1" as="geometry">
            <mxPoint x="320" y="540" as="sourcePoint" />
            <mxPoint x="320" y="460" as="targetPoint" />
          </mxGeometry>
        </mxCell>
        <mxCell id="fbnTvlJ3aztH7MkE5Wtj-4" value="ftrace" style="text;html=1;align=center;verticalAlign=middle;resizable=0;points=[];autosize=1;strokeColor=none;fillColor=none;fontSize=10;" parent="1" vertex="1">
          <mxGeometry x="314" y="490" width="50" height="30" as="geometry" />
        </mxCell>
        <mxCell id="C50tHajHQgYOwYt-r0u--1" value="" style="endArrow=block;html=1;rounded=0;entryX=0.007;entryY=0.458;entryDx=0;entryDy=0;endFill=1;entryPerimeter=0;fontSize=10;" edge="1" parent="1" target="fbnTvlJ3aztH7MkE5Wtj-1">
          <mxGeometry width="50" height="50" relative="1" as="geometry">
            <mxPoint x="160" y="400" as="sourcePoint" />
            <mxPoint x="420" y="430" as="targetPoint" />
          </mxGeometry>
        </mxCell>
        <mxCell id="C50tHajHQgYOwYt-r0u--3" value="" style="endArrow=block;html=1;rounded=0;endFill=1;fontSize=10;" edge="1" parent="1">
          <mxGeometry width="50" height="50" relative="1" as="geometry">
            <mxPoint x="379.43" y="260" as="sourcePoint" />
            <mxPoint x="379.43" y="350" as="targetPoint" />
          </mxGeometry>
        </mxCell>
        <mxCell id="C50tHajHQgYOwYt-r0u--5" value="A0" style="text;html=1;strokeColor=none;fillColor=none;align=center;verticalAlign=middle;whiteSpace=wrap;rounded=0;fontSize=10;" vertex="1" parent="1">
          <mxGeometry x="440" y="438" width="60" height="30" as="geometry" />
        </mxCell>
        <mxCell id="C50tHajHQgYOwYt-r0u--6" value="" style="endArrow=block;html=1;rounded=0;endFill=1;exitX=0.997;exitY=0.451;exitDx=0;exitDy=0;exitPerimeter=0;fontSize=10;" edge="1" parent="1" source="fbnTvlJ3aztH7MkE5Wtj-1">
          <mxGeometry width="50" height="50" relative="1" as="geometry">
            <mxPoint x="474" y="430" as="sourcePoint" />
            <mxPoint x="590" y="400" as="targetPoint" />
          </mxGeometry>
        </mxCell>
        <mxCell id="C50tHajHQgYOwYt-r0u--8" value="&lt;div style=&quot;font-size: 10px;&quot;&gt;&lt;span style=&quot;font-size: 10px; background-color: initial;&quot;&gt;запрет / разрешение на показ / чтение / модификацию файла&amp;nbsp;&lt;/span&gt;&lt;/div&gt;" style="rounded=0;whiteSpace=wrap;html=1;align=center;strokeWidth=0;opacity=0;fontSize=10;" vertex="1" parent="1">
          <mxGeometry x="481" y="345" width="109" height="60" as="geometry" />
        </mxCell>
        <mxCell id="C50tHajHQgYOwYt-r0u--12" value="" style="endArrow=block;html=1;rounded=0;endFill=1;entryX=0.25;entryY=1;entryDx=0;entryDy=0;fontSize=10;" edge="1" parent="1">
          <mxGeometry width="50" height="50" relative="1" as="geometry">
            <mxPoint x="430" y="539" as="sourcePoint" />
            <mxPoint x="430" y="459" as="targetPoint" />
          </mxGeometry>
        </mxCell>
        <mxCell id="C50tHajHQgYOwYt-r0u--13" value="struct linux_dirent64" style="text;html=1;align=center;verticalAlign=middle;resizable=0;points=[];autosize=1;strokeColor=none;fillColor=none;fontSize=10;" vertex="1" parent="1">
          <mxGeometry x="424" y="490" width="110" height="30" as="geometry" />
        </mxCell>
        <mxCell id="C50tHajHQgYOwYt-r0u--14" value="&lt;div style=&quot;font-size: 10px;&quot;&gt;список файлов, для которых необходимо запретить показ, чтение, модификацию&lt;br style=&quot;font-size: 10px;&quot;&gt;&lt;/div&gt;" style="rounded=0;whiteSpace=wrap;html=1;align=center;strokeWidth=0;opacity=0;fontSize=10;" vertex="1" parent="1">
          <mxGeometry x="380" y="275" width="106" height="60" as="geometry" />
        </mxCell>
        <mxCell id="xAbGmL24AJ4du5vX0ESW-1" value="&lt;div style=&quot;font-size: 10px;&quot;&gt;системный вызов&lt;br style=&quot;border-color: var(--border-color);&quot;&gt;&lt;span style=&quot;&quot;&gt;(openat / write / unlinkat / getdents64)&lt;/span&gt;&lt;br&gt;&lt;/div&gt;" style="rounded=0;whiteSpace=wrap;html=1;align=center;strokeWidth=0;opacity=0;fontSize=10;" vertex="1" parent="1">
          <mxGeometry x="170" y="347" width="100" height="60" as="geometry" />
        </mxCell>
      </root>
    </mxGraphModel>
  </diagram>
  <diagram id="sppps7TIgJnSqEed54zS" name="idef0_1">
    <mxGraphModel dx="1005" dy="710" grid="1" gridSize="10" guides="1" tooltips="1" connect="1" arrows="1" fold="1" page="1" pageScale="1" pageWidth="827" pageHeight="1169" math="0" shadow="0">
      <root>
        <mxCell id="0" />
        <mxCell id="1" parent="0" />
        <mxCell id="MYXu8sivZMNg0nbRJZ7v-5" style="edgeStyle=orthogonalEdgeStyle;rounded=0;orthogonalLoop=1;jettySize=auto;html=1;entryX=0;entryY=0.5;entryDx=0;entryDy=0;" edge="1" parent="1" source="07wL73TYHA3GqAmQWifq-1" target="_V8kx-AfV170oAA61TPB-1">
          <mxGeometry relative="1" as="geometry">
            <mxPoint x="490" y="509" as="targetPoint" />
            <Array as="points">
              <mxPoint x="450" y="415" />
              <mxPoint x="450" y="505" />
            </Array>
          </mxGeometry>
        </mxCell>
        <mxCell id="07wL73TYHA3GqAmQWifq-1" value="Перехват функций в ядре" style="rounded=0;whiteSpace=wrap;html=1;fontSize=9;" vertex="1" parent="1">
          <mxGeometry x="290" y="370" width="105" height="90" as="geometry" />
        </mxCell>
        <mxCell id="07wL73TYHA3GqAmQWifq-4" value="" style="endArrow=block;html=1;rounded=0;entryX=0.007;entryY=0.458;entryDx=0;entryDy=0;endFill=1;entryPerimeter=0;fontSize=9;exitX=-0.012;exitY=1.086;exitDx=0;exitDy=0;exitPerimeter=0;" edge="1" parent="1" target="07wL73TYHA3GqAmQWifq-1">
          <mxGeometry width="50" height="50" relative="1" as="geometry">
            <mxPoint x="188.79999999999995" y="411.7199999999999" as="sourcePoint" />
            <mxPoint x="420" y="430" as="targetPoint" />
          </mxGeometry>
        </mxCell>
        <mxCell id="07wL73TYHA3GqAmQWifq-7" value="A1" style="text;html=1;strokeColor=none;fillColor=none;align=center;verticalAlign=middle;whiteSpace=wrap;rounded=0;fontSize=9;" vertex="1" parent="1">
          <mxGeometry x="354" y="434" width="60" height="30" as="geometry" />
        </mxCell>
        <mxCell id="lJXhVTgB_FTHbWCSF88v-2" style="edgeStyle=orthogonalEdgeStyle;rounded=0;orthogonalLoop=1;jettySize=auto;html=1;entryX=0;entryY=0.5;entryDx=0;entryDy=0;endArrow=block;endFill=1;" edge="1" parent="1" source="_V8kx-AfV170oAA61TPB-1" target="8Ip0ULgmgPy33SeAXI32-3">
          <mxGeometry relative="1" as="geometry">
            <Array as="points">
              <mxPoint x="650" y="505" />
              <mxPoint x="650" y="595" />
            </Array>
          </mxGeometry>
        </mxCell>
        <mxCell id="_V8kx-AfV170oAA61TPB-1" value="Получение имени файла" style="rounded=0;whiteSpace=wrap;html=1;fontSize=9;" vertex="1" parent="1">
          <mxGeometry x="490" y="460" width="105" height="90" as="geometry" />
        </mxCell>
        <mxCell id="uekbKLzNcsL2vNeVeloM-1" value="&lt;div style=&quot;font-size: 9px;&quot;&gt;вызов собственного обработчика системного вызова&lt;/div&gt;" style="rounded=0;whiteSpace=wrap;html=1;align=center;strokeWidth=0;opacity=0;fontSize=9;" vertex="1" parent="1">
          <mxGeometry x="395" y="364" width="100" height="60" as="geometry" />
        </mxCell>
        <mxCell id="8Ip0ULgmgPy33SeAXI32-1" value="" style="endArrow=block;html=1;rounded=0;endFill=1;entryX=0.25;entryY=1;entryDx=0;entryDy=0;fontSize=10;" edge="1" parent="1">
          <mxGeometry width="50" height="50" relative="1" as="geometry">
            <mxPoint x="542.1199999999999" y="630" as="sourcePoint" />
            <mxPoint x="542.1199999999999" y="550" as="targetPoint" />
          </mxGeometry>
        </mxCell>
        <mxCell id="8Ip0ULgmgPy33SeAXI32-2" value="struct &lt;br&gt;linux_dirent64" style="text;html=1;align=center;verticalAlign=middle;resizable=0;points=[];autosize=1;strokeColor=none;fillColor=none;fontSize=10;" vertex="1" parent="1">
          <mxGeometry x="535" y="575" width="90" height="40" as="geometry" />
        </mxCell>
        <mxCell id="8Ip0ULgmgPy33SeAXI32-3" value="Проверка пароля и наличия имени файла в&amp;nbsp;списке файлов, для которых необходимо запретить показ, чтение, модификацию" style="rounded=0;whiteSpace=wrap;html=1;fontSize=9;" vertex="1" parent="1">
          <mxGeometry x="697" y="550" width="105" height="90" as="geometry" />
        </mxCell>
        <mxCell id="8Ip0ULgmgPy33SeAXI32-6" value="&lt;div style=&quot;font-size: 10px;&quot;&gt;&lt;span style=&quot;font-size: 10px; background-color: initial;&quot;&gt;имя файла&lt;/span&gt;&lt;/div&gt;" style="rounded=0;whiteSpace=wrap;html=1;align=center;strokeWidth=0;opacity=0;fontSize=10;" vertex="1" parent="1">
          <mxGeometry x="579" y="461" width="100" height="60" as="geometry" />
        </mxCell>
        <mxCell id="8Ip0ULgmgPy33SeAXI32-7" value="A3" style="text;html=1;strokeColor=none;fillColor=none;align=center;verticalAlign=middle;whiteSpace=wrap;rounded=0;fontSize=9;" vertex="1" parent="1">
          <mxGeometry x="762" y="616" width="60" height="30" as="geometry" />
        </mxCell>
        <mxCell id="9uWTYwU8QiDrBG12rjM5-1" value="" style="endArrow=block;html=1;rounded=0;endFill=1;fontSize=10;" edge="1" parent="1">
          <mxGeometry width="50" height="50" relative="1" as="geometry">
            <mxPoint x="749.54" y="460" as="sourcePoint" />
            <mxPoint x="749.1199999999999" y="550" as="targetPoint" />
          </mxGeometry>
        </mxCell>
        <mxCell id="9uWTYwU8QiDrBG12rjM5-2" value="&lt;div style=&quot;font-size: 10px;&quot;&gt;список файлов, для которых необходимо запретить показ, чтение, модификацию&lt;br style=&quot;font-size: 10px;&quot;&gt;&lt;/div&gt;" style="rounded=0;whiteSpace=wrap;html=1;align=center;strokeWidth=0;opacity=0;fontSize=10;" vertex="1" parent="1">
          <mxGeometry x="750" y="476" width="106" height="60" as="geometry" />
        </mxCell>
        <mxCell id="eUKlfFCKraVT-zw69K7y-1" value="" style="endArrow=block;html=1;rounded=0;endFill=1;exitX=0.997;exitY=0.451;exitDx=0;exitDy=0;exitPerimeter=0;fontSize=10;" edge="1" parent="1">
          <mxGeometry width="50" height="50" relative="1" as="geometry">
            <mxPoint x="802" y="596" as="sourcePoint" />
            <mxPoint x="913" y="596" as="targetPoint" />
          </mxGeometry>
        </mxCell>
        <mxCell id="eUKlfFCKraVT-zw69K7y-2" value="&lt;div style=&quot;font-size: 10px;&quot;&gt;&lt;span style=&quot;font-size: 10px; background-color: initial;&quot;&gt;запрет / разрешение на показ / чтение / модификацию файла&amp;nbsp;&lt;/span&gt;&lt;/div&gt;" style="rounded=0;whiteSpace=wrap;html=1;align=center;strokeWidth=0;opacity=0;fontSize=10;" vertex="1" parent="1">
          <mxGeometry x="804" y="541" width="108" height="60" as="geometry" />
        </mxCell>
        <mxCell id="X8Nu_p-ZgibG_qoed4V3-2" value="ftrace" style="text;html=1;align=center;verticalAlign=middle;resizable=0;points=[];autosize=1;strokeColor=none;fillColor=none;fontSize=10;" vertex="1" parent="1">
          <mxGeometry x="340" y="491" width="50" height="30" as="geometry" />
        </mxCell>
        <mxCell id="X8Nu_p-ZgibG_qoed4V3-10" value="" style="endArrow=block;html=1;rounded=0;endFill=1;entryX=0.25;entryY=1;entryDx=0;entryDy=0;fontSize=10;" edge="1" parent="1">
          <mxGeometry width="50" height="50" relative="1" as="geometry">
            <mxPoint x="342.12" y="540" as="sourcePoint" />
            <mxPoint x="342.12" y="460" as="targetPoint" />
          </mxGeometry>
        </mxCell>
        <mxCell id="MYXu8sivZMNg0nbRJZ7v-1" value="&lt;div style=&quot;font-size: 9px;&quot;&gt;системный вызов&lt;br style=&quot;border-color: var(--border-color); font-size: 9px;&quot;&gt;&lt;span style=&quot;font-size: 9px;&quot;&gt;(openat / write / unlinkat / getdents64)&lt;/span&gt;&lt;br style=&quot;font-size: 9px;&quot;&gt;&lt;/div&gt;" style="rounded=0;whiteSpace=wrap;html=1;align=center;strokeWidth=0;opacity=0;fontSize=9;" vertex="1" parent="1">
          <mxGeometry x="190" y="360" width="100" height="60" as="geometry" />
        </mxCell>
        <mxCell id="DZooP-s9BczQdTF0br5E-1" value="A2" style="text;html=1;strokeColor=none;fillColor=none;align=center;verticalAlign=middle;whiteSpace=wrap;rounded=0;fontSize=9;" vertex="1" parent="1">
          <mxGeometry x="550" y="526" width="60" height="30" as="geometry" />
        </mxCell>
      </root>
    </mxGraphModel>
  </diagram>
  <diagram id="haznH2nlmn043l3FcTqV" name="structure">
    <mxGraphModel dx="1005" dy="710" grid="1" gridSize="10" guides="1" tooltips="1" connect="1" arrows="1" fold="1" page="1" pageScale="1" pageWidth="827" pageHeight="1169" math="0" shadow="0">
      <root>
        <mxCell id="0" />
        <mxCell id="1" parent="0" />
        <mxCell id="gCnZWUlPDU1gHEwWuCou-1" value="" style="rounded=0;whiteSpace=wrap;html=1;dashed=1;" parent="1" vertex="1">
          <mxGeometry x="81" y="361" width="479" height="200" as="geometry" />
        </mxCell>
        <mxCell id="QmPnnzEiPHEzfzVXAGDy-3" style="edgeStyle=orthogonalEdgeStyle;rounded=0;orthogonalLoop=1;jettySize=auto;html=1;entryX=0;entryY=0.5;entryDx=0;entryDy=0;" edge="1" parent="1" source="gCnZWUlPDU1gHEwWuCou-2" target="QmPnnzEiPHEzfzVXAGDy-1">
          <mxGeometry relative="1" as="geometry" />
        </mxCell>
        <mxCell id="gCnZWUlPDU1gHEwWuCou-2" value="proc_create()" style="rounded=0;whiteSpace=wrap;html=1;" parent="1" vertex="1">
          <mxGeometry x="120" y="431" width="120" height="60" as="geometry" />
        </mxCell>
        <mxCell id="JSWPcyP6xKq-FeXslDBG-1" value="" style="endArrow=none;html=1;rounded=0;" edge="1" parent="1">
          <mxGeometry width="50" height="50" relative="1" as="geometry">
            <mxPoint x="40" y="320" as="sourcePoint" />
            <mxPoint x="600" y="320" as="targetPoint" />
          </mxGeometry>
        </mxCell>
        <mxCell id="JSWPcyP6xKq-FeXslDBG-2" value="режим ядра" style="text;html=1;align=center;verticalAlign=middle;resizable=0;points=[];autosize=1;strokeColor=none;fillColor=none;" vertex="1" parent="1">
          <mxGeometry x="517" y="318" width="90" height="30" as="geometry" />
        </mxCell>
        <mxCell id="JSWPcyP6xKq-FeXslDBG-3" value="загружаемый модуль ядра" style="text;html=1;align=center;verticalAlign=middle;resizable=0;points=[];autosize=1;strokeColor=none;fillColor=none;" vertex="1" parent="1">
          <mxGeometry x="390" y="531" width="170" height="30" as="geometry" />
        </mxCell>
        <mxCell id="QmPnnzEiPHEzfzVXAGDy-4" style="edgeStyle=orthogonalEdgeStyle;rounded=0;orthogonalLoop=1;jettySize=auto;html=1;entryX=0;entryY=0.5;entryDx=0;entryDy=0;" edge="1" parent="1" source="QmPnnzEiPHEzfzVXAGDy-1" target="QmPnnzEiPHEzfzVXAGDy-2">
          <mxGeometry relative="1" as="geometry" />
        </mxCell>
        <mxCell id="QmPnnzEiPHEzfzVXAGDy-1" value="fh_install_hooks()" style="rounded=0;whiteSpace=wrap;html=1;" vertex="1" parent="1">
          <mxGeometry x="270" y="431" width="120" height="60" as="geometry" />
        </mxCell>
        <mxCell id="QmPnnzEiPHEzfzVXAGDy-2" value="device_create()" style="rounded=0;whiteSpace=wrap;html=1;" vertex="1" parent="1">
          <mxGeometry x="413.5" y="431" width="120" height="60" as="geometry" />
        </mxCell>
      </root>
    </mxGraphModel>
  </diagram>
  <diagram id="G8-uCpD7iutamLyjRdLG" name="tmp">
    <mxGraphModel dx="1306" dy="923" grid="1" gridSize="10" guides="1" tooltips="1" connect="1" arrows="1" fold="1" page="1" pageScale="1" pageWidth="827" pageHeight="1169" math="0" shadow="0">
      <root>
        <mxCell id="0" />
        <mxCell id="1" parent="0" />
        <mxCell id="jc52JpKHvFi8FnWjiUDH-1" value="Перехват функций в ядре" style="rounded=0;whiteSpace=wrap;html=1;fontSize=10;" vertex="1" parent="1">
          <mxGeometry x="280" y="350" width="200" height="110" as="geometry" />
        </mxCell>
        <mxCell id="jc52JpKHvFi8FnWjiUDH-2" value="" style="endArrow=block;html=1;rounded=0;endFill=1;entryX=0.25;entryY=1;entryDx=0;entryDy=0;fontSize=10;" edge="1" parent="1">
          <mxGeometry width="50" height="50" relative="1" as="geometry">
            <mxPoint x="300" y="540" as="sourcePoint" />
            <mxPoint x="300" y="460" as="targetPoint" />
          </mxGeometry>
        </mxCell>
        <mxCell id="jc52JpKHvFi8FnWjiUDH-3" value="ftrace" style="text;html=1;align=center;verticalAlign=middle;resizable=0;points=[];autosize=1;strokeColor=none;fillColor=none;fontSize=10;" vertex="1" parent="1">
          <mxGeometry x="217" y="509" width="50" height="30" as="geometry" />
        </mxCell>
        <mxCell id="jc52JpKHvFi8FnWjiUDH-4" value="" style="endArrow=block;html=1;rounded=0;entryX=0.007;entryY=0.458;entryDx=0;entryDy=0;endFill=1;entryPerimeter=0;fontSize=10;" edge="1" parent="1" target="jc52JpKHvFi8FnWjiUDH-1">
          <mxGeometry width="50" height="50" relative="1" as="geometry">
            <mxPoint x="160" y="400" as="sourcePoint" />
            <mxPoint x="420" y="430" as="targetPoint" />
          </mxGeometry>
        </mxCell>
        <mxCell id="jc52JpKHvFi8FnWjiUDH-5" value="системный вызов&lt;br&gt;(openat/write/unlinkat/getdents64)" style="text;html=1;align=center;verticalAlign=middle;resizable=0;points=[];autosize=1;strokeColor=none;fillColor=none;fontSize=10;" vertex="1" parent="1">
          <mxGeometry x="133" y="369" width="170" height="40" as="geometry" />
        </mxCell>
        <mxCell id="jc52JpKHvFi8FnWjiUDH-6" value="" style="endArrow=block;html=1;rounded=0;endFill=1;fontSize=10;" edge="1" parent="1">
          <mxGeometry width="50" height="50" relative="1" as="geometry">
            <mxPoint x="310" y="260" as="sourcePoint" />
            <mxPoint x="310" y="350" as="targetPoint" />
          </mxGeometry>
        </mxCell>
        <mxCell id="jc52JpKHvFi8FnWjiUDH-7" value="A0" style="text;html=1;strokeColor=none;fillColor=none;align=center;verticalAlign=middle;whiteSpace=wrap;rounded=0;fontSize=10;" vertex="1" parent="1">
          <mxGeometry x="440" y="438" width="60" height="30" as="geometry" />
        </mxCell>
        <mxCell id="jc52JpKHvFi8FnWjiUDH-8" value="" style="endArrow=block;html=1;rounded=0;endFill=1;exitX=0.997;exitY=0.451;exitDx=0;exitDy=0;exitPerimeter=0;fontSize=10;" edge="1" parent="1" source="jc52JpKHvFi8FnWjiUDH-1">
          <mxGeometry width="50" height="50" relative="1" as="geometry">
            <mxPoint x="474" y="430" as="sourcePoint" />
            <mxPoint x="590" y="400" as="targetPoint" />
          </mxGeometry>
        </mxCell>
        <mxCell id="jc52JpKHvFi8FnWjiUDH-9" value="&lt;div style=&quot;font-size: 10px;&quot;&gt;&lt;span style=&quot;font-size: 10px; background-color: initial;&quot;&gt;запрет/разрешение на показ/чтение/модификацию файла&amp;nbsp;&lt;/span&gt;&lt;/div&gt;" style="rounded=0;whiteSpace=wrap;html=1;align=center;strokeWidth=0;opacity=0;fontSize=10;" vertex="1" parent="1">
          <mxGeometry x="481" y="345" width="100" height="60" as="geometry" />
        </mxCell>
        <mxCell id="jc52JpKHvFi8FnWjiUDH-10" value="" style="endArrow=block;html=1;rounded=0;endFill=1;fontSize=10;" edge="1" parent="1">
          <mxGeometry width="50" height="50" relative="1" as="geometry">
            <mxPoint x="449" y="261" as="sourcePoint" />
            <mxPoint x="449" y="351" as="targetPoint" />
          </mxGeometry>
        </mxCell>
        <mxCell id="jc52JpKHvFi8FnWjiUDH-11" value="имя файла" style="text;html=1;align=center;verticalAlign=middle;resizable=0;points=[];autosize=1;strokeColor=none;fillColor=none;fontSize=10;" vertex="1" parent="1">
          <mxGeometry x="439" y="291" width="80" height="30" as="geometry" />
        </mxCell>
        <mxCell id="jc52JpKHvFi8FnWjiUDH-12" value="" style="endArrow=block;html=1;rounded=0;endFill=1;entryX=0.25;entryY=1;entryDx=0;entryDy=0;fontSize=10;" edge="1" parent="1">
          <mxGeometry width="50" height="50" relative="1" as="geometry">
            <mxPoint x="335" y="540" as="sourcePoint" />
            <mxPoint x="335" y="460" as="targetPoint" />
          </mxGeometry>
        </mxCell>
        <mxCell id="jc52JpKHvFi8FnWjiUDH-13" value="struct linux_dirent64" style="text;html=1;align=center;verticalAlign=middle;resizable=0;points=[];autosize=1;strokeColor=none;fillColor=none;fontSize=10;" vertex="1" parent="1">
          <mxGeometry x="218" y="550" width="110" height="30" as="geometry" />
        </mxCell>
        <mxCell id="jc52JpKHvFi8FnWjiUDH-14" value="&lt;div style=&quot;font-size: 10px;&quot;&gt;список файлов, для которых необходимо запретить показ, чтение, модификацию&lt;br style=&quot;font-size: 10px;&quot;&gt;&lt;/div&gt;" style="rounded=0;whiteSpace=wrap;html=1;align=center;strokeWidth=0;opacity=0;fontSize=10;" vertex="1" parent="1">
          <mxGeometry x="314" y="275" width="106" height="60" as="geometry" />
        </mxCell>
        <mxCell id="jc52JpKHvFi8FnWjiUDH-15" value="" style="group;flipV=1;fontSize=10;" vertex="1" connectable="0" parent="1">
          <mxGeometry x="260" y="500" width="40" height="26" as="geometry" />
        </mxCell>
        <mxCell id="jc52JpKHvFi8FnWjiUDH-16" value="" style="endArrow=none;html=1;rounded=0;fontSize=10;" edge="1" parent="jc52JpKHvFi8FnWjiUDH-15">
          <mxGeometry width="50" height="50" relative="1" as="geometry">
            <mxPoint x="20" y="16" as="sourcePoint" />
            <mxPoint x="40" as="targetPoint" />
          </mxGeometry>
        </mxCell>
        <mxCell id="jc52JpKHvFi8FnWjiUDH-17" value="" style="endArrow=none;html=1;rounded=0;fontSize=10;" edge="1" parent="jc52JpKHvFi8FnWjiUDH-15">
          <mxGeometry width="50" height="50" relative="1" as="geometry">
            <mxPoint x="20" y="6" as="sourcePoint" />
            <mxPoint x="20" y="16" as="targetPoint" />
          </mxGeometry>
        </mxCell>
        <mxCell id="jc52JpKHvFi8FnWjiUDH-18" value="" style="endArrow=none;html=1;rounded=0;fontSize=10;" edge="1" parent="jc52JpKHvFi8FnWjiUDH-15">
          <mxGeometry width="50" height="50" relative="1" as="geometry">
            <mxPoint x="20" y="6" as="sourcePoint" />
            <mxPoint y="26" as="targetPoint" />
          </mxGeometry>
        </mxCell>
        <mxCell id="jc52JpKHvFi8FnWjiUDH-19" value="" style="endArrow=block;html=1;rounded=0;endFill=1;entryX=0.25;entryY=1;entryDx=0;entryDy=0;fontSize=10;" edge="1" parent="1">
          <mxGeometry width="50" height="50" relative="1" as="geometry">
            <mxPoint x="367" y="540" as="sourcePoint" />
            <mxPoint x="367" y="460" as="targetPoint" />
          </mxGeometry>
        </mxCell>
        <mxCell id="jc52JpKHvFi8FnWjiUDH-20" value="" style="endArrow=block;html=1;rounded=0;endFill=1;entryX=0.25;entryY=1;entryDx=0;entryDy=0;fontSize=10;" edge="1" parent="1">
          <mxGeometry width="50" height="50" relative="1" as="geometry">
            <mxPoint x="399" y="540" as="sourcePoint" />
            <mxPoint x="399" y="460" as="targetPoint" />
          </mxGeometry>
        </mxCell>
        <mxCell id="jc52JpKHvFi8FnWjiUDH-21" value="" style="endArrow=block;html=1;rounded=0;endFill=1;entryX=0.25;entryY=1;entryDx=0;entryDy=0;fontSize=10;" edge="1" parent="1">
          <mxGeometry width="50" height="50" relative="1" as="geometry">
            <mxPoint x="430" y="540" as="sourcePoint" />
            <mxPoint x="430" y="460" as="targetPoint" />
          </mxGeometry>
        </mxCell>
        <mxCell id="jc52JpKHvFi8FnWjiUDH-22" value="" style="endArrow=block;html=1;rounded=0;endFill=1;entryX=0.25;entryY=1;entryDx=0;entryDy=0;fontSize=10;" edge="1" parent="1">
          <mxGeometry width="50" height="50" relative="1" as="geometry">
            <mxPoint x="460" y="540" as="sourcePoint" />
            <mxPoint x="460" y="460" as="targetPoint" />
          </mxGeometry>
        </mxCell>
        <mxCell id="jc52JpKHvFi8FnWjiUDH-23" value="" style="group;flipV=1;rotation=-15;fontSize=10;" vertex="1" connectable="0" parent="1">
          <mxGeometry x="299" y="529" width="40" height="26" as="geometry" />
        </mxCell>
        <mxCell id="jc52JpKHvFi8FnWjiUDH-24" value="" style="endArrow=none;html=1;rounded=0;fontSize=10;" edge="1" parent="jc52JpKHvFi8FnWjiUDH-23">
          <mxGeometry width="50" height="50" relative="1" as="geometry">
            <mxPoint x="21" y="16" as="sourcePoint" />
            <mxPoint x="36" y="-5" as="targetPoint" />
          </mxGeometry>
        </mxCell>
        <mxCell id="jc52JpKHvFi8FnWjiUDH-25" value="" style="endArrow=none;html=1;rounded=0;fontSize=10;" edge="1" parent="jc52JpKHvFi8FnWjiUDH-23">
          <mxGeometry width="50" height="50" relative="1" as="geometry">
            <mxPoint x="19" y="6" as="sourcePoint" />
            <mxPoint x="21" y="16" as="targetPoint" />
          </mxGeometry>
        </mxCell>
        <mxCell id="jc52JpKHvFi8FnWjiUDH-26" value="" style="endArrow=none;html=1;rounded=0;fontSize=10;" edge="1" parent="jc52JpKHvFi8FnWjiUDH-23">
          <mxGeometry width="50" height="50" relative="1" as="geometry">
            <mxPoint x="19" y="6" as="sourcePoint" />
            <mxPoint x="4" y="31" as="targetPoint" />
          </mxGeometry>
        </mxCell>
        <mxCell id="jc52JpKHvFi8FnWjiUDH-27" value="" style="group;flipV=1;rotation=-30;flipH=0;fontSize=10;" vertex="1" connectable="0" parent="1">
          <mxGeometry x="336" y="530" width="40" height="26" as="geometry" />
        </mxCell>
        <mxCell id="jc52JpKHvFi8FnWjiUDH-28" value="" style="endArrow=none;html=1;rounded=0;fontSize=10;" edge="1" parent="jc52JpKHvFi8FnWjiUDH-27">
          <mxGeometry width="50" height="50" relative="1" as="geometry">
            <mxPoint x="22" y="15" as="sourcePoint" />
            <mxPoint x="31" y="-8" as="targetPoint" />
          </mxGeometry>
        </mxCell>
        <mxCell id="jc52JpKHvFi8FnWjiUDH-29" value="" style="endArrow=none;html=1;rounded=0;fontSize=10;" edge="1" parent="jc52JpKHvFi8FnWjiUDH-27">
          <mxGeometry width="50" height="50" relative="1" as="geometry">
            <mxPoint x="17" y="6" as="sourcePoint" />
            <mxPoint x="22" y="15" as="targetPoint" />
          </mxGeometry>
        </mxCell>
        <mxCell id="jc52JpKHvFi8FnWjiUDH-30" value="" style="endArrow=none;html=1;rounded=0;fontSize=10;" edge="1" parent="jc52JpKHvFi8FnWjiUDH-27">
          <mxGeometry width="50" height="50" relative="1" as="geometry">
            <mxPoint x="17" y="6" as="sourcePoint" />
            <mxPoint x="9" y="34" as="targetPoint" />
          </mxGeometry>
        </mxCell>
        <mxCell id="jc52JpKHvFi8FnWjiUDH-31" value="системный вызов openat" style="rounded=0;whiteSpace=wrap;html=1;align=center;strokeWidth=0;opacity=0;fontSize=10;" vertex="1" parent="1">
          <mxGeometry x="319" y="551" width="60" height="60" as="geometry" />
        </mxCell>
        <mxCell id="jc52JpKHvFi8FnWjiUDH-32" value="" style="group;flipV=1;rotation=-30;flipH=1;fontSize=10;" vertex="1" connectable="0" parent="1">
          <mxGeometry x="390" y="530" width="40" height="26" as="geometry" />
        </mxCell>
        <mxCell id="jc52JpKHvFi8FnWjiUDH-33" value="" style="endArrow=none;html=1;rounded=0;fontSize=10;" edge="1" parent="jc52JpKHvFi8FnWjiUDH-32">
          <mxGeometry width="50" height="50" relative="1" as="geometry">
            <mxPoint x="18" y="15" as="sourcePoint" />
            <mxPoint x="9" y="-8" as="targetPoint" />
          </mxGeometry>
        </mxCell>
        <mxCell id="jc52JpKHvFi8FnWjiUDH-34" value="" style="endArrow=none;html=1;rounded=0;fontSize=10;" edge="1" parent="jc52JpKHvFi8FnWjiUDH-32">
          <mxGeometry width="50" height="50" relative="1" as="geometry">
            <mxPoint x="23" y="6" as="sourcePoint" />
            <mxPoint x="18" y="15" as="targetPoint" />
          </mxGeometry>
        </mxCell>
        <mxCell id="jc52JpKHvFi8FnWjiUDH-35" value="" style="endArrow=none;html=1;rounded=0;fontSize=10;" edge="1" parent="jc52JpKHvFi8FnWjiUDH-32">
          <mxGeometry width="50" height="50" relative="1" as="geometry">
            <mxPoint x="23" y="6" as="sourcePoint" />
            <mxPoint x="31" y="34" as="targetPoint" />
          </mxGeometry>
        </mxCell>
        <mxCell id="jc52JpKHvFi8FnWjiUDH-36" value="системный вызов write" style="rounded=0;whiteSpace=wrap;html=1;align=center;strokeWidth=0;opacity=0;fontSize=10;" vertex="1" parent="1">
          <mxGeometry x="389" y="545" width="60" height="60" as="geometry" />
        </mxCell>
        <mxCell id="jc52JpKHvFi8FnWjiUDH-37" value="" style="group;flipV=1;rotation=-15;flipH=1;fontSize=10;" vertex="1" connectable="0" parent="1">
          <mxGeometry x="426" y="532" width="40" height="26" as="geometry" />
        </mxCell>
        <mxCell id="jc52JpKHvFi8FnWjiUDH-38" value="" style="endArrow=none;html=1;rounded=0;fontSize=10;" edge="1" parent="jc52JpKHvFi8FnWjiUDH-37">
          <mxGeometry width="50" height="50" relative="1" as="geometry">
            <mxPoint x="19" y="16" as="sourcePoint" />
            <mxPoint x="4" y="-5" as="targetPoint" />
          </mxGeometry>
        </mxCell>
        <mxCell id="jc52JpKHvFi8FnWjiUDH-39" value="" style="endArrow=none;html=1;rounded=0;fontSize=10;" edge="1" parent="jc52JpKHvFi8FnWjiUDH-37">
          <mxGeometry width="50" height="50" relative="1" as="geometry">
            <mxPoint x="21" y="6" as="sourcePoint" />
            <mxPoint x="19" y="16" as="targetPoint" />
          </mxGeometry>
        </mxCell>
        <mxCell id="jc52JpKHvFi8FnWjiUDH-40" value="" style="endArrow=none;html=1;rounded=0;fontSize=10;" edge="1" parent="jc52JpKHvFi8FnWjiUDH-37">
          <mxGeometry width="50" height="50" relative="1" as="geometry">
            <mxPoint x="21" y="6" as="sourcePoint" />
            <mxPoint x="36" y="31" as="targetPoint" />
          </mxGeometry>
        </mxCell>
        <mxCell id="jc52JpKHvFi8FnWjiUDH-41" value="системный вызов unlinkat" style="rounded=0;whiteSpace=wrap;html=1;align=center;strokeWidth=0;opacity=0;fontSize=10;" vertex="1" parent="1">
          <mxGeometry x="455" y="549" width="60" height="60" as="geometry" />
        </mxCell>
        <mxCell id="jc52JpKHvFi8FnWjiUDH-42" value="системный вызов getdents64" style="rounded=0;whiteSpace=wrap;html=1;align=center;strokeWidth=0;opacity=0;fontSize=10;" vertex="1" parent="1">
          <mxGeometry x="497" y="501" width="60" height="60" as="geometry" />
        </mxCell>
        <mxCell id="jc52JpKHvFi8FnWjiUDH-43" value="" style="group;flipV=1;flipH=1;fontSize=10;" vertex="1" connectable="0" parent="1">
          <mxGeometry x="460" y="500" width="40" height="26" as="geometry" />
        </mxCell>
        <mxCell id="jc52JpKHvFi8FnWjiUDH-44" value="" style="endArrow=none;html=1;rounded=0;fontSize=10;" edge="1" parent="jc52JpKHvFi8FnWjiUDH-43">
          <mxGeometry width="50" height="50" relative="1" as="geometry">
            <mxPoint x="20" y="16" as="sourcePoint" />
            <mxPoint as="targetPoint" />
          </mxGeometry>
        </mxCell>
        <mxCell id="jc52JpKHvFi8FnWjiUDH-45" value="" style="endArrow=none;html=1;rounded=0;fontSize=10;" edge="1" parent="jc52JpKHvFi8FnWjiUDH-43">
          <mxGeometry width="50" height="50" relative="1" as="geometry">
            <mxPoint x="20" y="6" as="sourcePoint" />
            <mxPoint x="20" y="16" as="targetPoint" />
          </mxGeometry>
        </mxCell>
        <mxCell id="jc52JpKHvFi8FnWjiUDH-46" value="" style="endArrow=none;html=1;rounded=0;fontSize=10;" edge="1" parent="jc52JpKHvFi8FnWjiUDH-43">
          <mxGeometry width="50" height="50" relative="1" as="geometry">
            <mxPoint x="20" y="6" as="sourcePoint" />
            <mxPoint x="40" y="26" as="targetPoint" />
          </mxGeometry>
        </mxCell>
      </root>
    </mxGraphModel>
  </diagram>
</mxfile>
